<svg width="209" height="233" viewBox="0 0 209 233" fill="none" xmlns="http://www.w3.org/2000/svg">
 <style>
    path {
      fill: black;
    }
    @media (prefers-color-scheme: dark) {
      path {
        fill: white;
      }
    }
  </style>
<path fill-rule="evenodd" clip-rule="evenodd" d="M68.8702 159.341H0L1.86091 153.741H67.1202L34.3265 56.0428L52.9498 0L127.67 226.891H158.12V232.491H55.5702V226.891H91.6202L68.8702 159.341Z" />
<path fill-rule="evenodd" clip-rule="evenodd" d="M134.717 120.591H109.37V114.991H134.717C139.85 114.991 143.933 114.291 146.967 112.891C150 111.257 152.333 109.041 153.967 106.241C155.833 103.441 157.234 100.057 158.167 96.0907C159.1 92.1241 160.033 87.6907 160.967 82.7907C161.667 79.5241 162.6 77.8907 163.767 77.8907C165.167 77.8907 165.867 79.2907 165.867 82.0907V153.141C165.867 156.174 165.167 157.691 163.767 157.691C162.6 157.691 161.667 156.057 160.967 152.791C160.033 147.891 159.1 143.457 158.167 139.491C157.234 135.524 155.833 132.141 153.967 129.341C152.333 126.541 150 124.441 146.967 123.041C143.933 121.407 139.85 120.591 134.717 120.591ZM160.267 12.0907H109.37V6.49072H199.467C205.3 6.49072 208.217 9.29073 208.217 14.8907V68.0907C208.217 71.1241 207.4 72.6407 205.767 72.6407C203.9 72.6407 202.967 71.0074 202.967 67.7407C202.733 62.6074 201.8 56.8907 200.167 50.5907C198.767 44.0574 196.434 37.9907 193.167 32.3907C189.9 26.5574 185.583 21.7741 180.217 18.0407C174.85 14.0741 168.2 12.0907 160.267 12.0907Z" />

</svg>