<svg width="50" height="56" viewBox="0 0 50 56" fill="none" xmlns="http://www.w3.org/2000/svg">
<path fill-rule="evenodd" clip-rule="evenodd" d="M16.5381 38.2632H0L0.446867 36.9184H16.1179L8.24296 13.4578L12.7151 0L30.658 54.4843H37.9701V55.829H13.3443V54.4843H22.0012L16.5381 38.2632Z" fill="white"/>
<path fill-rule="evenodd" clip-rule="evenodd" d="M32.3501 28.9579H26.2636V27.6132H32.3501C33.5828 27.6132 34.5634 27.4451 35.2918 27.1089C36.0202 26.7167 36.5805 26.1844 36.9727 25.512C37.421 24.8396 37.7572 24.0272 37.9813 23.0746C38.2054 22.1221 38.4295 21.0575 38.6537 19.8808C38.8218 19.0964 39.0459 18.7042 39.326 18.7042C39.6622 18.7042 39.8303 19.0404 39.8303 19.7127V36.7743C39.8303 37.5027 39.6622 37.8669 39.326 37.8669C39.0459 37.8669 38.8218 37.4747 38.6537 36.6902C38.4295 35.5136 38.2054 34.449 37.9813 33.4965C37.7572 32.5439 37.421 31.7315 36.9727 31.0591C36.5805 30.3867 36.0202 29.8824 35.2918 29.5462C34.5634 29.154 33.5828 28.9579 32.3501 28.9579ZM38.4856 2.90335H26.2636V1.55859H47.8988C49.2996 1.55859 50 2.23097 50 3.57573V16.3509C50 17.0793 49.8039 17.4435 49.4117 17.4435C48.9634 17.4435 48.7393 17.0513 48.7393 16.2668C48.6833 15.0341 48.4591 13.6614 48.0669 12.1485C47.7307 10.5796 47.1704 9.12283 46.386 7.77807C45.6015 6.37729 44.565 5.22865 43.2762 4.33215C41.9875 3.37962 40.3906 2.90335 38.4856 2.90335Z" fill="white"/>
</svg>
